<?xml version="1.0" encoding="utf-8"?>
<!-- Generator: Adobe Illustrator 27.9.0, SVG Export Plug-In . SVG Version: 6.00 Build 0)  -->
<svg version="1.1" id="Layer_1" xmlns="http://www.w3.org/2000/svg" xmlns:xlink="http://www.w3.org/1999/xlink" x="0px" y="0px"
	 viewBox="0 0 1800 603.1" style="enable-background:new 0 0 1800 603.1;" xml:space="preserve">
<style type="text/css">
	.st0{fill:#03C3FF;}
	.st1{fill-rule:evenodd;clip-rule:evenodd;fill:#03C3FF;}
</style>
<g>
	<path class="st0" d="M78.3,295.7c0-50.5,32.4-90.8,86.7-90.8s87.8,38.1,87.8,90.8s-33.5,91.9-88.4,91.9S78.3,347.3,78.3,295.7
		L78.3,295.7z M24,296.8c0,76.8,50.9,136.8,131.1,136.8c44.5,0,81.4-19.1,99.9-51v55c0,52.2-34.6,85.8-87.8,85.8
		c-47.4,0-78.6-23.6-85.5-63.9H27.4c10.4,69.6,62.9,111.5,139.8,111.5c86.7,0,141.5-55,141.5-141.3V166.6h-48.5l-4,46.6
		c-17.9-34.3-53.1-54.4-98.9-54.4C75.3,158.8,24,219.4,24,296.8L24,296.8z"/>
	<path class="st0" d="M520.1,164.5c-11-2.3-19.1-3.3-28.9-3.3c-38.8,0-67,19.1-78.6,47.7l-3.4-41.5h-50.9v273.6h54.3V295.7
		c0-52.8,31.8-83,83.2-83h24.3V164.5L520.1,164.5z"/>
	<path class="st0" d="M640.3,406.7c-35.2,0-57.1-14.6-57.1-43.7c0-26.9,19.7-44.8,67.6-49.3l72.2-5.6v14.6
		C722.9,374.2,691.7,406.7,640.3,406.7L640.3,406.7z M624.8,447.6c45.6,0,84.4-19.7,98.7-51l5.8,44.3h46.2V268.8
		c0-74-47.4-109.9-117.2-109.9s-121.4,37.5-121.4,94.7h47.4c0-33.1,26-52.8,71.6-52.8c38.2,0,66.4,16.2,66.4,62.2v7.8l-89,6.8
		c-66.4,5.1-105.1,36.5-105.1,86.9S564.1,447.6,624.8,447.6L624.8,447.6z"/>
	<path class="st0" d="M788.9,563.7c14.5,3.3,29.5,5.6,47.4,5.6c43.4,0,71.6-19.7,90.7-66.7l133.5-335.9h-56.1l-83.8,221l-82-221
		h-57.1l113.8,288.8l-9.8,26.3c-13.3,34.7-34.1,38.6-60.1,38.6h-36.4V563.7L788.9,563.7z"/>
	<rect x="1093.6" y="28.2" class="st0" width="54.3" height="412.8"/>
	<path class="st0" d="M1545.6,295.7c0-50.5,32.4-90.8,86.7-90.8s87.8,38.2,87.8,90.8s-33.5,92-88.4,92S1545.6,347.3,1545.6,295.7
		L1545.6,295.7z M1491.2,296.8c0,76.8,50.9,136.8,131.1,136.8c44.5,0,81.4-19.1,99.9-51v55c0,52.2-34.6,85.8-87.8,85.8
		c-47.4,0-78.6-23.6-85.5-63.9h-54.3c10.4,69.6,62.9,111.5,139.8,111.5c86.7,0,141.5-55,141.5-141.3V166.6h-48.5l-4,46.6
		c-17.9-34.3-53.1-54.4-98.7-54.4C1542.6,158.8,1491.2,219.4,1491.2,296.8L1491.2,296.8z"/>
	<path class="st1" d="M1326.5,440.9c79.8,0,144.4-62.7,144.4-140.1s-64.6-140.1-144.4-140.1c-79.8,0-144.4,62.7-144.4,140.1
		S1246.7,440.9,1326.5,440.9L1326.5,440.9z M1326.5,393.1c52.6,0,95.2-41.4,95.2-92.5s-42.7-92.5-95.2-92.5s-95.2,41.4-95.2,92.5
		S1273.9,393.1,1326.5,393.1z"/>
	<path class="st1" d="M1331.5,248.8c1.8-6.4,10.4-7.2,13.4-1.3l20.6,40.4c1.2,2.4,3.7,3.9,6.4,3.9h19.1c5.1,0,9.2,4,9.2,8.9
		s-4.1,8.9-9.2,8.9h-30.6c-2.7,0-5.2-1.5-6.4-3.9l-12.6-24.5l-19.9,71.6c-1.8,6.4-10.4,7.2-13.4,1.3l-20.6-40.4
		c-1.2-2.4-3.7-3.9-6.4-3.9H1262c-5.1,0-9.2-4-9.2-8.9c0-4.9,4.1-8.9,9.2-8.9h30.6c2.7,0,5.2,1.5,6.4,3.9l12.6,24.5L1331.5,248.8z"
		/>
</g>
</svg>
