<?xml version="1.0" encoding="UTF-8"?>
<svg id="Layer_1" data-name="Layer 1" xmlns="http://www.w3.org/2000/svg" viewBox="0 0 287 92">
  <defs>
    <style>
      .cls-1 {
        fill-rule: evenodd;
      }

      .cls-1, .cls-2 {
        fill: #03c3ff;
        stroke-width: 0px;
      }
    </style>
  </defs>
  <path class="cls-2" d="m.5,45.8c0,12.9,8.3,22.9,21.3,22.9,7.2,0,13.3-3.2,16.3-8.6v9.2c0,8.7-5.6,14.4-14.3,14.4-7.7,0-12.8-3.9-13.9-10.7H1c1.7,11.7,10.3,18.7,22.8,18.7,14.1,0,23-9.2,23-23.7V24h-7.9l-.7,7.8c-2.9-5.7-8.7-9.1-16.1-9.1-13.3,0-21.6,10.2-21.6,23.1Zm8.8-.2c0-8.5,5.3-15.2,14.1-15.2s14.3,6.4,14.3,15.2-5.5,15.4-14.4,15.4c-8.6.1-14-6.7-14-15.4Z"/>
  <path class="cls-2" d="m81.2,23.6c-1.8-.4-3.1-.6-4.7-.6-6.3,0-10.9,3.2-12.8,8l-.6-7h-8.3v46h8.8v-24.4c0-8.8,5.2-13.9,13.5-13.9h3.9v-8.1s.2,0,.2,0Z"/>
  <path class="cls-2" d="m98.3,71.1c7.4,0,13.7-3.3,16.1-8.6l.9,7.4h7.5v-28.8c0-12.4-7.7-18.4-19.1-18.4-11.8,0-19.7,6.3-19.7,15.9h7.7c0-5.5,4.2-8.8,11.7-8.8,6.2,0,10.8,2.7,10.8,10.4v1.3l-14.5,1.1c-10.8.8-17.1,6.1-17.1,14.6s5.8,13.9,15.7,13.9Zm2.5-6.8c-5.7,0-9.3-2.4-9.3-7.3,0-4.5,3.2-7.5,11-8.3l11.8-.9v2.4c0,8.6-5.1,14.1-13.5,14.1Z"/>
  <path class="cls-2" d="m125,90.6c2.4.6,4.8.9,7.7.9,7.1,0,11.7-3.3,14.8-11.2l21.7-56.3h-9.1l-13.6,37.1-13.4-37.1h-9.3l18.5,48.4-1.6,4.4c-2.2,5.8-5.5,6.5-9.8,6.5h-5.9v7.3Z"/>
  <path class="cls-2" d="m183.4,70V.8h-8.8v69.2h8.8Z"/>
  <path class="cls-2" d="m239.3,45.8c0,12.9,8.3,22.9,21.3,22.9,7.2,0,13.3-3.2,16.3-8.6v9.2c0,8.7-5.6,14.4-14.3,14.4-7.7,0-12.8-3.9-13.9-10.7h-8.8c1.7,11.7,10.3,18.7,22.8,18.7,14.1,0,23-9.2,23-23.7V24h-7.9l-.7,7.8c-2.9-5.7-8.7-9.1-16.1-9.1-13.3,0-21.7,10.2-21.7,23.1Zm8.9-.2c0-8.5,5.3-15.2,14.1-15.2s14.3,6.4,14.3,15.2-5.5,15.4-14.4,15.4c-8.7.1-14-6.7-14-15.4Z"/>
  <path class="cls-1" d="m212.5,62c8.6,0,15.5-6.9,15.5-15.5s-6.9-15.5-15.5-15.5-15.5,6.9-15.5,15.5,6.9,15.5,15.5,15.5Zm0,8c13,0,23.5-10.5,23.5-23.5s-10.5-23.5-23.5-23.5-23.5,10.5-23.5,23.5,10.5,23.5,23.5,23.5Z"/>
  <path class="cls-1" d="m213.8,36.1c.1-.4.7-.5.9-.1l4.3,8.8c.1.2.3.3.4.3h3.5c.8,0,1.5.7,1.5,1.5s-.6,1.4-1.4,1.4h-5.4c-.2,0-.4-.1-.4-.3l-2.2-4.5-3.7,13.7c-.1.4-.7.5-.9.1l-4.3-8.8c-.1-.2-.3-.3-.4-.3h-3.7c-.8,0-1.5-.7-1.5-1.5s.7-1.5,1.5-1.5h5.4c.2,0,.4.1.4.3l2.2,4.5,3.8-13.6Z"/>
</svg>